# AST/ASF file generated using VICON BodyLanguage
# -----------------------------------------------
:version 1.10
:name VICON
:units
  mass 1.0
  length 0.45
  angle deg
:documentation
   .ast/.asf automatically generated from VICON data using
   VICON BodyBuilder and BodyLanguage model FoxedUp or BRILLIANT.MOD
:root
   order TX TY TZ RX RY RZ
   axis XYZ
   position 0 0 0  
   orientation 0 0 0 
:bonedata
  begin
     id 1 
     name lhipjoint
     direction 0.560651 -0.75055 0.34978 
     length 2.44936 
     axis 0 0 0  XYZ
  end
  begin
     id 2 
     name lfemur
     direction 0.34202 -0.939693 0  
     length 7.42139  
     axis 0 0 20  XYZ
    dof rx ry rz
    limits (-160.0 20.0)
           (-70.0 70.0)
           (-60.0 70.0)
  end
  begin
     id 3 
     name ltibia
     direction 0.34202 -0.939693 0   
     length 7.75674   
     axis 0 0 20   XYZ
    dof rx
    limits (-10.0 170.0)
  end
  begin
     id 4 
     name lfoot
     direction 0.0925879 -0.254383 0.962661   
     length 2.38688   
     axis -90 7.62852e-016 20   XYZ
    dof rx rz
    limits (-45.0 90.0)
           (-70.0 20.0)
  end
  begin
     id 5 
     name ltoes
     direction 1.53567e-011 -4.21973e-011 1   
     length 1.19228   
     axis -90 7.62852e-016 20   XYZ
    dof rx
    limits (-90.0 20.0)
  end
  begin
     id 6 
     name rhipjoint
     direction -0.540087 -0.762838 0.355506   
     length 2.4099  
     axis 0 0 0  XYZ 
  end
  begin
     id 7 
     name rfemur
     direction -0.34202 -0.939693 0   
     length 7.70794   
     axis 0 0 -20   XYZ
    dof rx ry rz
    limits (-160.0 20.0)
           (-70.0 70.0)
           (-70.0 60.0)
  end
  begin
     id 8 
     name rtibia
     direction -0.34202 -0.939693 0   
     length 7.66106   
     axis 0 0 -20   XYZ
    dof rx
    limits (-10.0 170.0)
 end
 begin
     id 9 
     name rfoot
     direction -0.0830975 -0.228308 0.970036   
     length 2.4989  
     axis -90 -7.62852e-016 -20   XYZ
    dof rx rz
    limits (-45.0 90.0)
           (-20.0 70.0)
  end
  begin
     id 10 
     name rtoes
     direction -1.53517e-011 -4.21842e-011 1   
     length 1.2498   
     axis -90 -7.62852e-016 -20   XYZ
    dof rx
    limits (-90.0 20.0)
  end
  begin
     id 11 
     name lowerback
     direction 0.0266356 0.99402 -0.105896   
     length 2.1545   
     axis 0 0 0   XYZ
    dof rx ry rz
    limits (-20.0 45.0)
           (-30.0 30.0)
           (-30.0 30.0)
  end
  begin
     id 12 
     name upperback
     direction 0.0130547 0.999192 0.0380027   
     length 2.1434   
     axis 0 0 0   XYZ
    dof rx ry rz
    limits (-20.0 45.0)
           (-30.0 30.0)
           (-30.0 30.0)
  end
  begin
     id 13 
     name thorax
     direction 0.000590299 0.996288 0.0860764   
     length 2.19049   
     axis 0 0 0   XYZ
    dof rx ry rz
    limits (-20.0 45.0)
           (-30.0 30.0)
           (-30.0 30.0)
  end
  begin
     id 14 
     name lowerneck
     direction -0.0432125 0.978219 0.203028   
     length 1.62441   
     axis 0 0 0   XYZ
    dof rx ry rz
    limits (-20.0 45.0)
           (-30.0 30.0)
           (-30.0 30.0)
  end
  begin
     id 15 
     name upperneck
     direction -0.0192309 0.991699 -0.127138   
     length 1.66666   
     axis 0 0 0   XYZ
    dof rx ry rz
    limits (-20.0 45.0)
           (-30.0 30.0)
           (-30.0 30.0)
  end
  begin
     id 16
     name head
     direction -0.00434499 0.997882 -0.0649107  
     length 1.67142  
     axis 0 0 0   XYZ
    dof rx ry rz
    limits (-20.0 45.0)
           (-30.0 30.0)
           (-30.0 30.0)
  end
  begin
     id 17 
     name lclavicle
     direction 0.970351 0.240904 -0.0196058  
     length 4.04862  
     axis 0 0 0   XYZ
    dof ry rz
    limits (-20.0 10.0)
           (0.0 20.0)
  end
  begin
     id 18 
     name lhumerus
     direction 1 -4.4896e-011 -1.40911e-018   
     length 5.58345   
     axis 180 -30 -90   XYZ
    dof rx ry rz
    limits (-60.0 90.0)
           (-90.0 90.0)
           (-90.0 90.0)
  end
  begin
     id 19
     name lradius
     direction 1 -4.48968e-011 5.88912e-028   
     length 3.71087   
     axis 180 -30 -90   XYZ
    dof rx
    limits (-10.0 170.0)
  end
  begin
     id 20
     name lwrist
     direction 1 -4.48955e-011 -8.83775e-028   
     length 1.85544   
     axis 5.52448e-016 90 90   XYZ
    dof ry
    limits (-180.0 0.0)
 end
  begin
     id 21 
     name lhand
     direction 1 -4.49035e-011 -1.76755e-027   
     length 0.562322   
     axis 1.12785e-015 90 90   XYZ
    dof rx rz
    limits (-90.0 90.0)
           (-45.0 45.0)
  end
  begin
     id 22 
     name lfingers
     direction 1 -4.48824e-011 -3.5351e-027   
     length 0.453359   
     axis 2.2557e-015 90 90   XYZ
    dof rx
    limits (0.0 90.0)
  end
  begin
     id 23
     name lthumb
     direction 0.707107 -6.34888e-011 0.707107   
     length 0.650935   
     axis -90 45 2.85299e-015   XYZ
    dof rx rz
    limits (-45.0 45.0)
           (-45.0 45.0)
  end
  begin
     id 24 
     name rclavicle
     direction -0.96165 0.268562 -0.0557131   
     length 4.05446  
     axis 0 0 0   XYZ 
    dof ry rz
    limits (-10.0 20.0)
           (-20.0 0.0)
  end
  begin
     id 25 
     name rhumerus
     direction -1 -4.48957e-011 -3.36329e-027  
     length 5.20357   
     axis 180 30 90   XYZ
    dof rx ry rz
    limits (-90.0 60.0)
           (-90.0 90.0)
           (-90.0 90.0)
  end
  begin
     id 26 
     name rradius
     direction -1 -4.48974e-011 4.51441e-027   
     length 3.64937   
     axis 180 30 90   XYZ
    dof rx
    limits (-10.0 170.0)
  end
  begin
     id 27 
     name rwrist
     direction -1 -4.4896e-011 -8.83775e-028   
     length 1.82468   
     axis 5.52448e-016 -90 -90   XYZ
    dof ry
    limits (-180.0 0.0)
  end
  begin
     id 28
     name rhand
     direction -1 -4.48996e-011 -1.76755e-027   
     length 0.617996   
     axis 1.12785e-015 -90 -90   XYZ
    dof rx rz
    limits (-90.0 90.0)
           (-45.0 45.0)
  end
  begin
     id 29
     name rfingers
     direction -1 -4.48957e-011 -3.5351e-027   
     length 0.498244   
     axis 2.2557e-015 -90 -90   XYZ
    dof rx
    limits (0.0 90.0)
  end
  begin
     id 30
     name rthumb
     direction -0.707107 -6.34931e-011 0.707107   
     length 0.715382   
     axis -90 -45 -2.85299e-015   XYZ
    dof rx rz
    limits (-45.0 45.0)
           (-45.0 45.0)
  end
:hierarchy
  begin
    root lhipjoint rhipjoint lowerback
    lhipjoint lfemur
    lfemur ltibia
    ltibia lfoot
    lfoot ltoes
    rhipjoint rfemur
    rfemur rtibia
    rtibia rfoot
    rfoot rtoes
    lowerback upperback
    upperback thorax
    thorax lowerneck lclavicle rclavicle
    lowerneck upperneck
    upperneck head
    lclavicle lhumerus
    lhumerus lradius
    lradius lwrist
    lwrist lhand lthumb
    lhand lfingers
    rclavicle rhumerus
    rhumerus rradius
    rradius rwrist
    rwrist rhand rthumb
    rhand rfingers
  end

#!OML:ASF H:\ManfredETheater\Project 1\Capture day 2\Session 1\Male1.ASF
:FULLY-SPECIFIED
:DEGREES
277
root 3.36459 16.1462 1.79193 -8.59717 -1.49792 -3.64607
lowerback 8.15498 0.156439 2.37655
upperback 0.625968 0.553718 3.11232
thorax -3.93602 0.258801 1.82867
lowerneck -26.596 -0.681309 -1.21121
upperneck 22.2303 0.419616 -3.10372
head 11.68 -0.350919 -0.890434
rclavicle 8.05078e-015 1.74931e-014
rhumerus 34.5611 -1.03888 -51.3406
rradius 55.4148
rwrist 20.3806
rhand 10.7903 -18.5403
rfingers 7.12502
rthumb 35.8755 -44.8873
lclavicle 8.05078e-015 1.74931e-014
lhumerus 26.457 3.57989 64.3698
lradius 71.0511
lwrist -19.6089
lhand 17.9527 13.9433
lfingers 7.12502
lthumb 42.6233 38.321
rfemur -12.1995 -11.3518 14.5224
rtibia 61.6873
rfoot -32.4508 -3.93691
rtoes -12.2679
lfemur -12.5827 8.33593 -5.87618
ltibia 60.4892
lfoot -32.3242 -4.84936
ltoes -12.7617
278
root 3.36405 16.146 1.79309 -8.61456 -1.4971 -3.64022
lowerback 8.15834 0.162329 2.37544
upperback 0.635803 0.561002 3.10731
thorax -3.92774 0.262444 1.8232
lowerneck -26.5735 -0.690721 -1.24429
upperneck 22.1985 0.402212 -3.04737
head 11.6631 -0.353253 -0.866391
rclavicle 1.02374e-014 -5.56597e-015
rhumerus 34.5599 -1.06102 -51.3365
rradius 55.4144
rwrist 20.41
rhand 10.8166 -18.5181
rfingers 7.12502
rthumb 35.9005 -44.859
lclavicle 1.02374e-014 -5.56597e-015
lhumerus 26.4745 3.57015 64.3794
lradius 71.0554
lwrist -19.6474
lhand 17.9499 13.9691
lfingers 7.12502
lthumb 42.6207 38.3477
rfemur -12.1649 -11.3437 14.5159
rtibia 61.6795
rfoot -32.4569 -3.95461
rtoes -12.328
lfemur -12.5508 8.33403 -5.87762
ltibia 60.4759
lfoot -32.3222 -4.85071
ltoes -12.7453
279
root 3.36354 16.1462 1.79243 -8.61596 -1.50192 -3.632
lowerback 8.18127 0.163339 2.36883
upperback 0.619932 0.563334 3.10474
thorax -3.95716 0.263538 1.82407
lowerneck -26.549 -0.68652 -1.21301
upperneck 22.1992 0.405037 -3.08347
head 11.659 -0.354037 -0.884383
rclavicle 5.61567e-015 5.32743e-014
rhumerus 34.5567 -1.0433 -51.332
rradius 55.4169
rwrist 20.4133
rhand 10.8363 -18.5271
rfingers 7.12502
rthumb 35.9191 -44.8635
lclavicle 5.61567e-015 5.32743e-014
lhumerus 26.4471 3.55892 64.3647
lradius 71.0578
lwrist -19.6273
lhand 17.9543 13.9596
lfingers 7.12502
lthumb 42.6249 38.3368
rfemur -12.1657 -11.3339 14.5118
rtibia 61.6751
rfoot -32.4561 -3.9606
rtoes -12.2725
lfemur -12.546 8.33523 -5.88533
ltibia 60.4668
lfoot -32.3258 -4.84788
ltoes -12.7733
280
root 3.36335 16.1464 1.79252 -8.61359 -1.49976 -3.61695
lowerback 8.18962 0.160471 2.37059
upperback 0.613623 0.559915 3.09516
thorax -3.96822 0.261672 1.81354
lowerneck -26.5539 -0.686434 -1.23205
upperneck 22.1973 0.406502 -3.06078
head 11.6591 -0.351941 -0.872516
rclavicle 1.03865e-014 1.11319e-014
rhumerus 34.5616 -1.03665 -51.3335
rradius 55.4018
rwrist 20.4141
rhand 10.8082 -18.5351
rfingers 7.12502
rthumb 35.8925 -44.878
lclavicle 1.03865e-014 1.11319e-014
lhumerus 26.4458 3.55936 64.3652
lradius 71.0537
lwrist -19.6255
lhand 17.9775 13.9825
lfingers 7.12502
lthumb 42.6465 38.3521
rfemur -12.1706 -11.3312 14.4978
rtibia 61.675
rfoot -32.4563 -3.96493
rtoes -12.3287
lfemur -12.5434 8.32791 -5.90507
ltibia 60.4561
lfoot -32.3195 -4.84477
ltoes -12.7522
281
root 3.36297 16.1464 1.79235 -8.61476 -1.49625 -3.61308
lowerback 8.16873 0.163554 2.36042
upperback 0.626874 0.561878 3.10183
thorax -3.94293 0.263011 1.82589
lowerneck -26.5414 -0.68597 -1.23817
upperneck 22.1726 0.40876 -3.06159
head 11.6474 -0.351157 -0.871053
rclavicle -4.67144e-015 7.95139e-015
rhumerus 34.5925 -1.05501 -51.3228
rradius 55.3935
rwrist 20.4204
rhand 10.823 -18.5406
rfingers 7.12502
rthumb 35.9065 -44.88
lclavicle -4.67144e-015 7.95139e-015
lhumerus 26.4593 3.5649 64.3818
lradius 71.0539
lwrist -19.6213
lhand 17.947 13.9699
lfingers 7.12502
lthumb 42.6179 38.3494
rfemur -12.1688 -11.3246 14.4978
rtibia 61.676
rfoot -32.4566 -3.96769
rtoes -12.2583
lfemur -12.5383 8.31353 -5.91168
ltibia 60.4506
lfoot -32.3221 -4.8213
ltoes -12.7821
282
root 3.36297 16.1463 1.79213 -8.62094 -1.4943 -3.61663
lowerback 8.19926 0.162045 2.38419
upperback 0.608809 0.563895 3.09503
thorax -3.97857 0.263357 1.80532
lowerneck -26.5293 -0.691816 -1.21971
upperneck 22.1906 0.398762 -3.08079
head 11.652 -0.356815 -0.883129
rclavicle -2.48481e-016 1.98785e-014
rhumerus 34.5756 -1.03711 -51.3104
rradius 55.3954
rwrist 20.3802
rhand 10.7959 -18.5933
rfingers 7.12502
rthumb 35.8808 -44.939
lclavicle -2.48481e-016 1.98785e-014
lhumerus 26.4486 3.54009 64.3715
lradius 71.0435
lwrist -19.5759
lhand 17.9633 13.9506
lfingers 7.12502
lthumb 42.6332 38.3249
rfemur -12.1603 -11.3289 14.5022
rtibia 61.6784
rfoot -32.4565 -3.99827
rtoes -12.3715
lfemur -12.5327 8.30831 -5.90839
ltibia 60.4452
lfoot -32.3289 -4.81913
ltoes -12.7508
283
root 3.36256 16.1467 1.79229 -8.61362 -1.49157 -3.6163
lowerback 8.19384 0.159225 2.38142
upperback 0.607113 0.559987 3.10165
thorax -3.97734 0.261526 1.81423
lowerneck -26.5166 -0.685466 -1.23265
upperneck 22.1662 0.409314 -3.07199
head 11.6404 -0.351591 -0.875504
rclavicle -7.45443e-016 -1.27222e-014
rhumerus 34.5954 -1.03604 -51.2991
rradius 55.3978
rwrist 20.3972
rhand 10.8608 -18.5521
rfingers 7.12502
rthumb 35.9423 -44.8827
lclavicle -7.45443e-016 -1.27222e-014
lhumerus 26.441 3.55162 64.3762
lradius 71.0459
lwrist -19.5729
lhand 17.9477 13.9361
lfingers 7.12502
lthumb 42.6186 38.3154
rfemur -12.1692 -11.3273 14.5056
rtibia 61.6833
rfoot -32.4592 -3.97715
rtoes -12.284
lfemur -12.5405 8.30759 -5.91033
ltibia 60.4419
lfoot -32.3345 -4.79715
ltoes -12.8112
284
root 3.36227 16.1464 1.79149 -8.59621 -1.48561 -3.58863
lowerback 8.17951 0.159869 2.36368
upperback 0.602432 0.558322 3.09108
thorax -3.9742 0.260933 1.8134
lowerneck -26.5089 -0.690264 -1.22331
upperneck 22.1601 0.402259 -3.08561
head 11.6367 -0.355677 -0.883239
rclavicle 4.52235e-015 3.33958e-014
rhumerus 34.6158 -1.04748 -51.3021
rradius 55.3914
rwrist 20.3907
rhand 10.8255 -18.5667
rfingers 7.12502
rthumb 35.9089 -44.9055
lclavicle 4.52235e-015 3.33958e-014
lhumerus 26.4594 3.54432 64.3708
lradius 71.0321
lwrist -19.537
lhand 17.9304 13.9481
lfingers 7.12502
lthumb 42.6024 38.333
rfemur -12.2016 -11.3282 14.4801
rtibia 61.6907
rfoot -32.4545 -3.98027
rtoes -12.23
lfemur -12.5615 8.30966 -5.94542
ltibia 60.4414
lfoot -32.3235 -4.80201
ltoes -12.7783
285
root 3.36201 16.1469 1.79158 -8.59424 -1.48667 -3.57805
lowerback 8.19896 0.161148 2.35849
upperback 0.579497 0.561229 3.08758
thorax -4.00901 0.262251 1.81247
lowerneck -26.4837 -0.689194 -1.23303
upperneck 22.1773 0.403228 -3.07033
head 11.6385 -0.354028 -0.875755
rclavicle 1.32689e-014 2.46493e-014
rhumerus 34.5959 -1.03059 -51.2907
rradius 55.4058
rwrist 20.3856
rhand 10.8133 -18.5872
rfingers 7.12502
rthumb 35.8973 -44.9288
lclavicle 1.32689e-014 2.46493e-014
lhumerus 26.4222 3.52754 64.3576
lradius 71.0481
lwrist -19.5637
lhand 17.9342 13.9185
lfingers 7.12502
lthumb 42.606 38.3022
rfemur -12.2059 -11.3285 14.4723
rtibia 61.6932
rfoot -32.4487 -4.00901
rtoes -12.3612
lfemur -12.5644 8.31326 -5.95745
ltibia 60.4406
lfoot -32.3203 -4.79735
ltoes -12.7977
